<svg xmlns="http://www.w3.org/2000/svg" viewBox="0 0 640 480"><rect width="640" height="480" fill="#f5f7fa"/><defs><linearGradient id="sky" x1="0" y1="0" x2="0" y2="1"><stop offset="0" stop-color="#bfe3ff"/><stop offset="1" stop-color="#dff1ff"/></linearGradient></defs><rect width="640" height="300" fill="url(#sky)"/><rect y="360" width="640" height="120" fill="#8fd18a"/><ellipse cx="300" cy="300" rx="95" ry="75" fill="#a1887f" /><ellipse cx="270" cy="280" rx="18" ry="22" fill="#5d4037" /><ellipse cx="330" cy="280" rx="18" ry="22" fill="#5d4037" /><ellipse cx="300" cy="340" rx="40" ry="34" fill="#a1887f" /><ellipse cx="300" cy="372" rx="34" ry="16" fill="#8d6e63" /><ellipse cx="250" cy="300" rx="14" ry="10" fill="#3e2723" /><ellipse cx="350" cy="300" rx="14" ry="10" fill="#3e2723" /><circle cx="255" cy="296" r="5" fill="#fff" /><circle cx="345" cy="296" r="5" fill="#fff" /><polygon points="280,310 320,310 300,330" fill="#795548" /><path d="M230 250 C 210 230 210 210 215 195 C 225 205 235 215 245 225" fill="none" stroke="#8d6e63" stroke-width="12" stroke-linecap="round" stroke-linejoin="round" /><path d="M370 250 C 390 230 390 210 385 195 C 375 205 365 215 355 225" fill="none" stroke="#8d6e63" stroke-width="12" stroke-linecap="round" stroke-linejoin="round" /><path d="M300 292 C 295 292 292 297 300 300" fill="none" stroke="#4e342e" stroke-width="4" stroke-linecap="round" stroke-linejoin="round" /></svg>